<svg width="46" height="48" viewBox="0 0 46 48" fill="none" xmlns="http://www.w3.org/2000/svg">
  <style>
    path {
      fill: #161616;
    }

    @media (prefers-color-scheme: dark) {
      path {
        fill: #FFFFFF;
      }
    }
  </style>
  <path
    d="M44.5053 14.2069C44.1089 14.2069 43.7287 14.3663 43.4484 14.6502C43.1681 14.934 43.0107 15.319 43.0107 15.7205V25.0202C43.0107 27.1205 42.1868 29.1348 40.7202 30.62C39.2536 32.1051 37.2646 32.9395 35.1905 32.9395C33.1165 32.9395 31.1274 32.1051 29.6609 30.62C28.1943 29.1348 27.3704 27.1205 27.3704 25.0202V22.5288C29.0124 22.907 30.719 22.8913 32.3539 22.4829C33.9889 22.0745 35.5069 21.2847 36.7868 20.1766C36.936 20.0474 37.0586 19.8897 37.1476 19.7125C37.2366 19.5353 37.2903 19.3421 37.3055 19.144C37.3208 18.9458 37.2974 18.7465 37.2366 18.5575C37.1758 18.3685 37.0788 18.1934 36.9513 18.0424C36.8237 17.8913 36.668 17.7672 36.493 17.677C36.318 17.5869 36.1273 17.5326 35.9316 17.5171C35.7359 17.5017 35.5391 17.5254 35.3524 17.5869C35.1658 17.6485 34.9929 17.7467 34.8438 17.8759C33.8286 18.752 32.6092 19.3509 31.3012 19.6158C29.9933 19.8807 28.6403 19.8028 27.3704 19.3895V15.7205C27.3704 15.319 27.2129 14.934 26.9326 14.6502C26.6523 14.3663 26.2722 14.2069 25.8757 14.2069C25.4793 14.2069 25.0992 14.3663 24.8189 14.6502C24.5385 14.934 24.3811 15.319 24.3811 15.7205V17.5943C23.1987 16.4582 22.396 14.9766 22.0853 13.3562H39.0767C39.4731 13.3562 39.8533 13.1967 40.1336 12.9129C40.4139 12.629 40.5714 12.244 40.5714 11.8426C40.5706 9.88261 40.0499 7.95884 39.0635 6.27251C38.0771 4.58617 36.6614 3.19922 34.9644 2.25675C33.2675 1.31427 31.3516 0.850884 29.4172 0.915067C27.4828 0.97925 25.601 1.56864 23.9685 2.62159L24.1838 2.14631C24.2725 1.96494 24.3244 1.7674 24.3364 1.56536C24.3484 1.36332 24.3203 1.1609 24.2537 0.970066C24.1871 0.779231 24.0834 0.603862 23.9487 0.454332C23.814 0.304802 23.651 0.184149 23.4695 0.0995104C23.2879 0.014872 23.0914 -0.0320326 22.8917 -0.0384286C22.6919 -0.0448246 22.4929 -0.010582 22.3064 0.0622734C22.1199 0.135129 21.9498 0.245117 21.806 0.385732C21.6623 0.526346 21.5478 0.69473 21.4695 0.880923L14.3728 16.5257L7.27606 0.880923C7.19769 0.69473 7.08324 0.526346 6.93948 0.385732C6.79572 0.245117 6.62557 0.135129 6.4391 0.0622734C6.25263 -0.010582 6.05362 -0.0448246 5.85386 -0.0384286C5.65409 -0.0320326 5.45761 0.014872 5.27606 0.0995104C5.09451 0.184149 4.93156 0.304802 4.79686 0.454332C4.66216 0.603862 4.55844 0.779231 4.49184 0.970066C4.42524 1.1609 4.39711 1.36332 4.40911 1.56536C4.42112 1.7674 4.47302 1.96494 4.56174 2.14631L11.7362 17.9849C11.4372 17.9606 11.1144 17.9425 10.8005 17.9425C9.33874 17.9438 7.89251 18.2462 6.54972 18.8311C5.20692 19.4161 3.99559 20.2714 2.98934 21.3451V19.2926C2.98934 18.8912 2.83187 18.5062 2.55156 18.2223C2.27126 17.9385 1.89108 17.779 1.49467 17.779C1.09826 17.779 0.718084 17.9385 0.437779 18.2223C0.157474 18.5062 0 18.8912 0 19.2926L0 38.4854C0 38.8868 0.157474 39.2718 0.437779 39.5557C0.718084 39.8395 1.09826 39.999 1.49467 39.999C1.89108 39.999 2.27126 39.8395 2.55156 39.5557C2.83187 39.2718 2.98934 38.8868 2.98934 38.4854V28.889C2.99039 27.5878 3.30777 26.307 3.91346 25.1594C4.51915 24.0119 5.39451 23.0331 6.46226 22.3093C7.53002 21.5856 8.75731 21.1392 10.0358 21.0096C11.3143 20.8799 12.6046 21.0711 13.7928 21.5661C14.0791 21.6849 14.3947 21.7109 14.6961 21.6404C14.9976 21.57 15.27 21.4065 15.4758 21.1726V21.1726L15.4968 21.1453C15.5382 21.0959 15.5771 21.0444 15.6133 20.9909L15.6283 20.9637L15.6612 20.9031C15.6821 20.8668 15.703 20.8305 15.721 20.7911L19.066 13.4319C19.3039 15.0715 19.9057 16.6351 20.8263 18.0052C21.7469 19.3753 22.9623 20.5162 24.3811 21.3421V29.5156C22.6475 27.6768 20.3356 26.5067 17.8426 26.2065C15.3497 25.9063 12.8313 26.4947 10.7202 27.8706C8.6091 29.2465 7.03709 31.324 6.27426 33.7461C5.51143 36.1683 5.6054 38.7838 6.54004 41.1434C7.47468 43.503 9.19163 45.4593 11.3959 46.6762C13.6001 47.8931 16.1541 48.2946 18.6189 47.8117C21.0837 47.3288 23.3055 45.9917 24.9026 44.0301C26.4996 42.0685 27.3722 39.6049 27.3704 37.0626V32.5641C28.3776 33.6391 29.5903 34.4952 30.9348 35.0803C32.2792 35.6653 33.7272 35.967 35.1905 35.967C36.6539 35.967 38.1019 35.6653 39.4463 35.0803C40.7908 34.4952 42.0035 33.6391 43.0107 32.5641V34.4531C43.0107 34.8545 43.1681 35.2395 43.4484 35.5234C43.7287 35.8072 44.1089 35.9667 44.5053 35.9667C44.9017 35.9667 45.2819 35.8072 45.5622 35.5234C45.8425 35.2395 46 34.8545 46 34.4531V15.7205C46 15.319 45.8425 14.934 45.5622 14.6502C45.2819 14.3663 44.9017 14.2069 44.5053 14.2069V14.2069ZM29.7619 3.93541C31.576 3.93756 33.3332 4.57741 34.7333 5.74569C36.1334 6.91397 37.0895 8.53822 37.4385 10.3411H22.0853C22.4353 8.53874 23.3918 6.91515 24.7916 5.74707C26.1915 4.57898 27.948 3.93872 29.7619 3.93541ZM16.561 44.9728C15.0143 44.9728 13.5023 44.5083 12.2163 43.6381C10.9303 42.7679 9.92799 41.5311 9.33611 40.0841C8.74422 38.637 8.58936 37.0447 8.8911 35.5085C9.19284 33.9723 9.93763 32.5612 11.0313 31.4537C12.125 30.3462 13.5184 29.5919 15.0353 29.2864C16.5523 28.9808 18.1246 29.1376 19.5536 29.737C20.9825 30.3364 22.2039 31.3514 23.0631 32.6538C23.9224 33.9561 24.3811 35.4872 24.3811 37.0535C24.3787 39.1531 23.554 41.166 22.088 42.6506C20.622 44.1352 18.6343 44.9703 16.561 44.9728V44.9728Z" />
</svg>